<mxfile host="app.diagrams.net" modified="2023-10-29T01:16:22.414Z" agent="Mozilla/5.0 (Windows NT 10.0; Win64; x64) AppleWebKit/537.36 (KHTML, like Gecko) Chrome/118.0.0.0 Safari/537.36" etag="MHXHnb77a9xShXbSB2N-" version="22.0.8" type="device">
  <diagram name="Página-1" id="VhisjeJg-uqaOqlf25Oy">
    <mxGraphModel dx="472" dy="744" grid="1" gridSize="10" guides="1" tooltips="1" connect="1" arrows="1" fold="1" page="1" pageScale="1" pageWidth="827" pageHeight="1169" math="0" shadow="0">
      <root>
        <mxCell id="0" />
        <mxCell id="1" parent="0" />
        <mxCell id="wWQ6sx1EbPbGWh6QyXlS-2" value="&amp;lt;&amp;lt;serviço&amp;gt;&amp;gt;&lt;br&gt;GestãoInfo" style="rounded=0;whiteSpace=wrap;html=1;fillColor=#0066CC;strokeColor=#001DBC;fontColor=#ffffff;" parent="1" vertex="1">
          <mxGeometry x="340" y="190" width="180" height="90" as="geometry" />
        </mxCell>
        <mxCell id="wWQ6sx1EbPbGWh6QyXlS-3" value="" style="rounded=0;whiteSpace=wrap;html=1;fillColor=#dae8fc;strokeColor=#6c8ebf;" parent="1" vertex="1">
          <mxGeometry x="100" y="340" width="660" height="190" as="geometry" />
        </mxCell>
        <mxCell id="wWQ6sx1EbPbGWh6QyXlS-5" value="&amp;lt;&amp;lt;SPA&amp;gt;&amp;gt;&lt;br&gt;UI" style="text;html=1;strokeColor=none;fillColor=none;align=center;verticalAlign=middle;whiteSpace=wrap;rounded=0;" parent="1" vertex="1">
          <mxGeometry x="110" y="350" width="60" height="30" as="geometry" />
        </mxCell>
      </root>
    </mxGraphModel>
  </diagram>
</mxfile>
